<svg width="23" height="23" viewBox="0 0 23 23" fill="none" xmlns="http://www.w3.org/2000/svg">
<path d="M15.9498 5.63605L4.63606 16.9498C4.24554 17.3403 4.24554 17.9734 4.63606 18.364C5.02659 18.7545 5.65975 18.7545 6.05028 18.364L17.364 7.05026C17.7545 6.65973 17.7545 6.02657 17.364 5.63605C16.9735 5.24552 16.3403 5.24552 15.9498 5.63605Z" fill="#1D2745"/>
<path fill-rule="evenodd" clip-rule="evenodd" d="M6.0501 5.63598L17.3641 16.95C17.5463 17.1386 17.6471 17.3912 17.6448 17.6534C17.6425 17.9156 17.5373 18.1664 17.3519 18.3518C17.1665 18.5372 16.9157 18.6424 16.6535 18.6447C16.3913 18.6469 16.1387 18.5461 15.9501 18.364L4.6361 7.04998C4.54059 6.95773 4.46441 6.84739 4.412 6.72538C4.35959 6.60338 4.332 6.47216 4.33085 6.33938C4.32969 6.2066 4.355 6.07492 4.40528 5.95202C4.45556 5.82913 4.52981 5.71747 4.6237 5.62358C4.7176 5.52969 4.82925 5.45544 4.95214 5.40516C5.07504 5.35487 5.20672 5.32957 5.3395 5.33073C5.47228 5.33188 5.6035 5.35947 5.7255 5.41188C5.84751 5.46428 5.95785 5.54047 6.0501 5.63598Z" fill="#1D2745"/>
</svg>
