<svg width="18" height="18" viewBox="0 0 18 18" fill="none" xmlns="http://www.w3.org/2000/svg">
<path fill-rule="evenodd" clip-rule="evenodd" d="M12.5358 5.46401C12.6021 5.53032 12.6548 5.60904 12.6907 5.69569C12.7266 5.78234 12.745 5.87522 12.745 5.96901C12.745 6.06281 12.7266 6.15568 12.6907 6.24233C12.6548 6.32898 12.6021 6.40771 12.5358 6.47401L6.47479 12.536C6.40848 12.6023 6.32975 12.6549 6.2431 12.6908C6.15645 12.7267 6.06358 12.7452 5.96979 12.7452C5.87601 12.7452 5.78314 12.7267 5.69649 12.6908C5.60984 12.6549 5.53111 12.6023 5.46479 12.536C5.39848 12.4697 5.34587 12.391 5.30998 12.3043C5.27409 12.2177 5.25562 12.1248 5.25562 12.031C5.25562 11.9372 5.27409 11.8444 5.30998 11.7577C5.34587 11.6711 5.39848 11.5923 5.46479 11.526L11.5248 5.46401C11.5911 5.39767 11.6698 5.34505 11.7565 5.30914C11.8431 5.27324 11.936 5.25476 12.0298 5.25476C12.1236 5.25476 12.2165 5.27324 12.3031 5.30914C12.3898 5.34505 12.4685 5.39767 12.5348 5.46401H12.5358Z" fill="#BEBEBE"/>
<path fill-rule="evenodd" clip-rule="evenodd" d="M5.46389 5.46401C5.39755 5.53032 5.34493 5.60904 5.30902 5.69569C5.27312 5.78234 5.25464 5.87522 5.25464 5.96901C5.25464 6.06281 5.27312 6.15568 5.30902 6.24233C5.34493 6.32898 5.39755 6.40771 5.46389 6.47401L11.5249 12.536C11.6588 12.6699 11.8405 12.7452 12.0299 12.7452C12.2193 12.7452 12.401 12.6699 12.5349 12.536C12.6688 12.4021 12.7441 12.2204 12.7441 12.031C12.7441 11.8416 12.6688 11.6599 12.5349 11.526L6.47489 5.46401C6.40858 5.39767 6.32986 5.34505 6.24321 5.30914C6.15656 5.27324 6.06368 5.25476 5.96989 5.25476C5.8761 5.25476 5.78322 5.27324 5.69657 5.30914C5.60992 5.34505 5.5302 5.39767 5.46389 5.46401Z" fill="#BEBEBE"/>
</svg>
