<svg width="40" height="40" viewBox="0 0 40 40" fill="none" xmlns="http://www.w3.org/2000/svg">
<path fill-rule="evenodd" clip-rule="evenodd" d="M9.75389 29.7089C8.22976 28.1844 7.37354 26.117 7.37354 23.9614C7.37354 21.8057 8.22976 19.7383 9.75389 18.2139L10.4159 17.5519C11.6628 16.3053 13.3537 15.605 15.1169 15.605C16.88 15.605 18.571 16.3053 19.8179 17.5519L21.9109 19.6449C22.5284 20.2621 23.0182 20.995 23.3524 21.8016C23.6866 22.6082 23.8586 23.4728 23.8586 24.3459C23.8586 25.219 23.6866 26.0835 23.3524 26.8901C23.0182 27.6967 22.5284 28.4296 21.9109 29.0469L21.2489 29.7089C19.7245 31.233 17.6571 32.0892 15.5014 32.0892C13.3457 32.0892 11.2783 31.233 9.75389 29.7089Z" fill="white"/>
<path fill-rule="evenodd" clip-rule="evenodd" d="M9.75389 29.7089C8.22976 28.1844 7.37354 26.117 7.37354 23.9614C7.37354 21.8057 8.22976 19.7383 9.75389 18.2139L10.4159 17.5519C11.6628 16.3053 13.3537 15.605 15.1169 15.605C16.88 15.605 18.571 16.3053 19.8179 17.5519L21.9109 19.6449C22.5284 20.2621 23.0182 20.995 23.3524 21.8016C23.6866 22.6082 23.8586 23.4728 23.8586 24.3459C23.8586 25.219 23.6866 26.0835 23.3524 26.8901C23.0182 27.6967 22.5284 28.4296 21.9109 29.0469L21.2489 29.7089C19.7245 31.233 17.6571 32.0892 15.5014 32.0892C13.3457 32.0892 11.2783 31.233 9.75389 29.7089Z" stroke="#F52C50" stroke-width="2" stroke-linecap="round" stroke-linejoin="round"/>
<path fill-rule="evenodd" clip-rule="evenodd" d="M12.7359 19.479C12.4371 19.4354 12.1498 19.3334 11.8904 19.1787C11.6311 19.024 11.4048 18.8197 11.2244 18.5775C11.044 18.3353 10.9132 18.0599 10.8393 17.7671C10.7655 17.4743 10.75 17.1698 10.7939 16.871L11.9499 8.96699C12.0383 8.36335 12.3628 7.81953 12.852 7.45515C13.0943 7.27472 13.3697 7.14378 13.6626 7.0698C13.9555 6.99583 14.2601 6.98026 14.5589 7.02399C14.8578 7.06772 15.1452 7.16989 15.4046 7.32467C15.664 7.47945 15.8904 7.68381 16.0708 7.92608C16.2512 8.16835 16.3821 8.44378 16.4561 8.73665C16.5301 9.02952 16.5457 9.3341 16.5019 9.63299L15.3439 17.537C15.3002 17.8358 15.1981 18.123 15.0434 18.3823C14.8887 18.6416 14.6844 18.8679 14.4422 19.0482C14.2 19.2285 13.9247 19.3594 13.6319 19.4333C13.3392 19.5072 13.0347 19.5228 12.7359 19.479Z" fill="white"/>
<path fill-rule="evenodd" clip-rule="evenodd" d="M12.7359 19.479C12.4371 19.4354 12.1498 19.3334 11.8904 19.1787C11.6311 19.024 11.4048 18.8197 11.2244 18.5775C11.044 18.3353 10.9132 18.0599 10.8393 17.7671C10.7655 17.4743 10.75 17.1698 10.7939 16.871L11.9499 8.96699C12.0383 8.36335 12.3628 7.81953 12.852 7.45515C13.0943 7.27472 13.3697 7.14378 13.6626 7.0698C13.9555 6.99583 14.2601 6.98026 14.5589 7.02399C14.8578 7.06772 15.1452 7.16989 15.4046 7.32467C15.664 7.47945 15.8904 7.68381 16.0708 7.92608C16.2512 8.16835 16.3821 8.44378 16.4561 8.73665C16.5301 9.02952 16.5457 9.3341 16.5019 9.63299L15.3439 17.537C15.3002 17.8358 15.1981 18.123 15.0434 18.3823C14.8887 18.6416 14.6844 18.8679 14.4422 19.0482C14.2 19.2285 13.9247 19.3594 13.6319 19.4333C13.3392 19.5072 13.0347 19.5228 12.7359 19.479Z" stroke="#F52C50" stroke-width="2" stroke-linecap="round" stroke-linejoin="round"/>
<path fill-rule="evenodd" clip-rule="evenodd" d="M16.621 21.235L16.573 21.219C16.0352 21.038 15.5913 20.6509 15.3389 20.1427C15.0865 19.6345 15.0462 19.0468 15.227 18.509L18.585 8.52098C18.7659 7.98318 19.1531 7.53927 19.6613 7.28686C20.1695 7.03446 20.7571 6.99421 21.295 7.17498L21.342 7.19198C21.6081 7.28147 21.854 7.42251 22.0656 7.60703C22.2772 7.79155 22.4504 8.01595 22.5753 8.26741C22.7002 8.51888 22.7744 8.79248 22.7935 9.07259C22.8127 9.35271 22.7765 9.63385 22.687 9.89998L19.33 19.889C19.149 20.4265 18.762 20.8703 18.2541 21.1226C17.7461 21.375 17.1587 21.4154 16.621 21.235Z" fill="white"/>
<path fill-rule="evenodd" clip-rule="evenodd" d="M16.621 21.235L16.573 21.219C16.0352 21.038 15.5913 20.6509 15.3389 20.1427C15.0865 19.6345 15.0462 19.0468 15.227 18.509L18.585 8.52098C18.7659 7.98318 19.1531 7.53927 19.6613 7.28686C20.1695 7.03446 20.7571 6.99421 21.295 7.17498L21.342 7.19198C21.6081 7.28147 21.854 7.42251 22.0656 7.60703C22.2772 7.79155 22.4504 8.01595 22.5753 8.26741C22.7002 8.51888 22.7744 8.79248 22.7935 9.07259C22.8127 9.35271 22.7765 9.63385 22.687 9.89998L19.33 19.889C19.149 20.4265 18.762 20.8703 18.2541 21.1226C17.7461 21.375 17.1587 21.4154 16.621 21.235Z" stroke="#F52C50" stroke-width="2" stroke-linecap="round" stroke-linejoin="round"/>
<path fill-rule="evenodd" clip-rule="evenodd" d="M18.6839 23.2129C18.2442 22.813 17.9813 22.2549 17.953 21.6612C17.9247 21.0675 18.1333 20.4869 18.5329 20.0469L21.4479 16.8379C21.8521 16.4157 22.4053 16.1681 22.9895 16.1478C23.5737 16.1276 24.1427 16.3363 24.5752 16.7294C25.0078 17.1226 25.2697 17.6692 25.3051 18.2526C25.3405 18.8361 25.1467 19.4103 24.7649 19.8529L21.8499 23.0609C21.4501 23.5008 20.892 23.7638 20.2983 23.7923C19.7047 23.8208 19.124 23.6124 18.6839 23.2129Z" fill="white"/>
<path fill-rule="evenodd" clip-rule="evenodd" d="M18.6839 23.2129C18.2442 22.813 17.9813 22.2549 17.953 21.6612C17.9247 21.0675 18.1333 20.4869 18.5329 20.0469L21.4479 16.8379C21.8521 16.4157 22.4053 16.1681 22.9895 16.1478C23.5737 16.1276 24.1427 16.3363 24.5752 16.7294C25.0078 17.1226 25.2697 17.6692 25.3051 18.2526C25.3405 18.8361 25.1467 19.4103 24.7649 19.8529L21.8499 23.0609C21.4501 23.5008 20.892 23.7638 20.2983 23.7923C19.7047 23.8208 19.124 23.6124 18.6839 23.2129Z" stroke="#F52C50" stroke-width="2" stroke-linecap="round" stroke-linejoin="round"/>
<path fill-rule="evenodd" clip-rule="evenodd" d="M22.0008 26.2271C21.7829 26.0292 21.6062 25.7902 21.4807 25.5239C21.3553 25.2576 21.2835 24.9692 21.2696 24.6752C21.2557 24.3812 21.2998 24.0873 21.3996 23.8103C21.4993 23.5333 21.6526 23.2788 21.8508 23.0611L23.7608 20.9591C24.1604 20.5195 24.7182 20.2567 25.3115 20.2284C25.9049 20.2001 26.4852 20.4086 26.9248 20.8081C27.1427 21.0059 27.3194 21.2447 27.445 21.5108C27.5705 21.7769 27.6424 22.0652 27.6565 22.3591C27.6706 22.653 27.6267 22.9468 27.5272 23.2238C27.4278 23.5007 27.2747 23.7553 27.0768 23.9731L25.1668 26.0761C24.9689 26.294 24.73 26.4708 24.4638 26.5964C24.1975 26.7219 23.9091 26.7938 23.6151 26.8078C23.3211 26.8218 23.0271 26.7778 22.7502 26.6781C22.4732 26.5785 22.2185 26.4252 22.0008 26.2271Z" fill="white"/>
<path fill-rule="evenodd" clip-rule="evenodd" d="M22.0008 26.2271C21.7829 26.0291 21.6062 25.7902 21.4807 25.5239C21.3553 25.2576 21.2835 24.9692 21.2696 24.6752C21.2557 24.3812 21.2998 24.0873 21.3996 23.8103C21.4993 23.5333 21.6526 23.2788 21.8508 23.0611L23.7608 20.9591C24.1604 20.5195 24.7182 20.2567 25.3115 20.2284C25.9049 20.2001 26.4852 20.4086 26.9248 20.8081C27.1427 21.0059 27.3194 21.2447 27.445 21.5108C27.5705 21.7769 27.6424 22.0652 27.6565 22.3591C27.6706 22.653 27.6267 22.9468 27.5272 23.2238C27.4278 23.5007 27.2747 23.7553 27.0768 23.9731L25.1668 26.0761C24.9689 26.294 24.73 26.4708 24.4638 26.5964C24.1975 26.7219 23.9091 26.7938 23.6151 26.8078C23.3211 26.8218 23.0271 26.7778 22.7502 26.6781C22.4732 26.5785 22.2185 26.4252 22.0008 26.2271Z" stroke="#F52C50" stroke-width="2" stroke-linecap="round" stroke-linejoin="round"/>
<path fill-rule="evenodd" clip-rule="evenodd" d="M13.1999 24.7399C13.1849 23.2649 12.8799 22.3799 12.3279 21.3349C15.4209 21.5399 17.8779 22.1509 18.3449 20.0449C18.5689 19.0369 18.1199 17.8599 16.4019 17.1729C13.9979 16.2109 10.2019 15.4229 8.34589 17.6559C6.12289 20.3319 7.13689 25.0379 7.96889 27.0199" fill="white"/>
<path d="M13.1999 24.7399C13.1849 23.2649 12.8799 22.3799 12.3279 21.3349C15.4209 21.5399 17.8779 22.1509 18.3449 20.0449C18.5689 19.0369 18.1199 17.8599 16.4019 17.1729C13.9979 16.2109 10.2019 15.4229 8.34589 17.6559C6.12289 20.3319 7.13689 25.0379 7.96889 27.0199" stroke="#F52C50" stroke-width="2" stroke-linecap="round" stroke-linejoin="round"/>
<path d="M30.7178 10.365L28.5588 12.32M32.5468 15.696L29.6378 15.551" stroke="#1DE5D4" stroke-width="2" stroke-linecap="round" stroke-linejoin="round"/>
</svg>
